<svg xmlns="http://www.w3.org/2000/svg" viewBox="0 0 70 70"><path d="M12.509 26H9.65a1 1 0 1 0 0 2h2.858a1 1 0 1 0 0-2zm6.857 1a1 1 0 0 0 1 1h2.858a1 1 0 1 0 0-2h-2.858a1 1 0 0 0-1 1z"/><path d="M65 3H23c-1.103 0-2 .897-2 2v16H5c-1.103 0-2 .897-2 2v42c0 1.103.897 2 2 2h42c1.103 0 2-.897 2-2V49h16c1.103 0 2-.897 2-2V5c0-1.103-.897-2-2-2zM47 65H5V33h42v32zm0-34H5v-8h17.004L47 22.997V31zm18 16H49V23c0-1.103-.897-2-2-2H23v-6h42v32zm0-34H23V5h42v8z"/><path d="M27.651 10h2.858a1 1 0 1 0 0-2H27.65a1 1 0 1 0 0 2zm10.715 0h2.858a1 1 0 1 0 0-2h-2.858a1 1 0 1 0 0 2zM17.293 55.707a.997.997 0 0 0 1.414 0 1 1 0 0 0 0-1.414L14.414 50l4.293-4.293a1 1 0 1 0-1.414-1.414l-5 5a1 1 0 0 0 0 1.414l5 5zm16 0a.997.997 0 0 0 1.414 0l5-5a1 1 0 0 0 0-1.414l-5-5a1 1 0 1 0-1.414 1.414L37.586 50l-4.293 4.293a1 1 0 0 0 0 1.414zm-12.202 5.288a.999.999 0 0 0 1.321-.503l9-20.083a.999.999 0 1 0-1.824-.818l-9 20.083a.999.999 0 0 0 .503 1.321z"/></svg>